<?xml version="1.0" encoding="UTF-8" standalone="no"?>
<!DOCTYPE svg PUBLIC "-//W3C//DTD SVG 1.1//EN" "http://www.w3.org/Graphics/SVG/1.1/DTD/svg11.dtd">
<svg width="100%" height="100%" viewBox="0 0 1080 1080" version="1.1" xmlns="http://www.w3.org/2000/svg" xmlns:xlink="http://www.w3.org/1999/xlink" xml:space="preserve" xmlns:serif="http://www.serif.com/" style="fill-rule:evenodd;clip-rule:evenodd;stroke-linejoin:round;stroke-miterlimit:2;">
    <g transform="matrix(14.0279,0,0,14.0279,-161.394,-13521)">
        <path d="M16.766,1010.14C9.752,1017.15 9.752,1028.58 16.766,1035.6C23.78,1042.61 35.207,1042.61 42.222,1035.6L56.364,1021.45C63.378,1014.44 63.378,1003.01 56.364,995.998C56.354,995.988 56.345,995.979 56.335,995.969C55.171,994.805 53.256,994.805 52.092,995.969C50.928,997.133 50.928,999.048 52.092,1000.21C52.102,1000.22 52.111,1000.23 52.121,1000.24C56.859,1004.98 56.859,1012.47 52.121,1017.21L37.979,1031.35C33.241,1036.09 25.746,1036.09 21.009,1031.35C16.271,1026.62 16.271,1019.12 21.009,1014.38L34.444,1000.95C34.454,1000.94 34.465,1000.93 34.475,1000.92C35.639,999.754 35.639,997.838 34.475,996.675C33.311,995.511 31.396,995.511 30.232,996.675C30.222,996.685 30.211,996.695 30.201,996.706L16.766,1010.14ZM43.636,983.271C36.622,990.285 36.622,1001.71 43.636,1008.73C43.646,1008.74 43.655,1008.75 43.665,1008.75C44.829,1009.92 46.744,1009.92 47.908,1008.75C49.072,1007.59 49.072,1005.68 47.908,1004.51C47.898,1004.5 47.888,1004.49 47.879,1004.48C43.141,999.746 43.141,992.251 47.879,987.513L62.021,973.371C66.759,968.633 74.254,968.633 78.991,973.371C83.729,978.108 83.729,985.604 78.991,990.341L65.556,1003.78C65.546,1003.79 65.537,1003.8 65.527,1003.81C64.363,1004.97 64.363,1006.88 65.527,1008.05C66.691,1009.21 68.606,1009.21 69.77,1008.05C69.78,1008.04 69.789,1008.03 69.799,1008.02L83.234,994.584C90.248,987.569 90.249,976.143 83.234,969.128C76.22,962.114 64.793,962.114 57.778,969.128L43.636,983.271Z" style="fill-rule:nonzero;"/>
    </g>
</svg>
