<?xml version="1.0" encoding="UTF-8" standalone="no"?>
<!DOCTYPE svg PUBLIC "-//W3C//DTD SVG 1.1//EN" "http://www.w3.org/Graphics/SVG/1.1/DTD/svg11.dtd">
<svg width="100%" height="100%" viewBox="0 0 1080 1080" version="1.1" xmlns="http://www.w3.org/2000/svg" xmlns:xlink="http://www.w3.org/1999/xlink" xml:space="preserve" xmlns:serif="http://www.serif.com/" style="fill-rule:evenodd;clip-rule:evenodd;stroke-linejoin:round;stroke-miterlimit:2;">
    <g transform="matrix(11.3684,0,0,11.3684,-28.429,-28.4176)">
        <path d="M43.348,2.5C46.262,2.5 48.625,4.863 48.625,7.777C48.625,10.691 46.262,13.055 43.348,13.055L13.055,13.055L13.055,86.946L86.946,86.946L86.946,56.653C86.946,53.739 89.309,51.375 92.223,51.375C95.137,51.375 97.501,53.739 97.501,56.653L97.501,92.223C97.501,95.137 95.137,97.5 92.223,97.5L7.778,97.5C4.864,97.5 2.501,95.137 2.501,92.223L2.501,7.778C2.501,4.864 4.864,2.5 7.778,2.5L43.348,2.5ZM97.5,33.562L97.5,7.777C97.5,4.863 95.137,2.5 92.223,2.5L66.438,2.5C63.524,2.5 61.16,4.863 61.16,7.777C61.16,10.691 63.524,13.054 66.438,13.054L79.481,13.054L40.567,51.972C38.504,54.031 38.504,57.375 40.567,59.437C42.625,61.496 45.969,61.496 48.032,59.437L86.946,20.523L86.946,33.566C86.946,36.48 89.309,38.843 92.223,38.843C95.137,38.843 97.5,36.48 97.5,33.566L97.5,33.562Z"/>
    </g>
</svg>
