<?xml version="1.0" encoding="UTF-8" standalone="no"?>
<!DOCTYPE svg PUBLIC "-//W3C//DTD SVG 1.1//EN" "http://www.w3.org/Graphics/SVG/1.1/DTD/svg11.dtd">
<svg width="100%" height="100%" viewBox="0 0 1080 1080" version="1.1" xmlns="http://www.w3.org/2000/svg" xmlns:xlink="http://www.w3.org/1999/xlink" xml:space="preserve" xmlns:serif="http://www.serif.com/" style="fill-rule:evenodd;clip-rule:evenodd;stroke-linejoin:round;stroke-miterlimit:2;">
    <g id="txt" transform="matrix(36,0,0,36,-36,-36)">
        <path d="M22,9L10,9C9.451,9 9,9.451 9,10L9,14C9,14.549 9.451,15 10,15L13,15L13,22C13,22.549 13.451,23 14,23L18,23C18.549,23 19,22.549 19,22L19,15L22,15C22.549,15 23,14.549 23,14L23,10C23,9.451 22.549,9 22,9ZM21,13L18,13C17.451,13 17,13.451 17,14L17,21L15,21L15,14C15,13.451 14.549,13 14,13L11,13L11,11L21,11L21,13Z" style="fill-rule:nonzero;"/>
        <path d="M31,6L31,4C31,2.354 29.646,1 28,1L26,1C24.354,1 23,2.354 23,4L9,4C9,2.354 7.646,1 6,1L4,1C2.354,1 1,2.354 1,4L1,6C1,7.646 2.354,9 4,9L4,23C2.354,23 1,24.354 1,26L1,28C1,29.646 2.354,31 4,31L6,31C7.646,31 9,29.646 9,28L23,28C23,29.646 24.354,31 26,31L28,31C29.646,31 31,29.646 31,28L31,26C31,24.354 29.646,23 28,23L28,9C29.646,9 31,7.646 31,6ZM25,4C25,3.451 25.451,3 26,3L28,3C28.549,3 29,3.451 29,4L29,6C29,6.549 28.549,7 28,7L26,7C25.451,7 25,6.549 25,6L25,4ZM3,6L3,4C3,3.451 3.451,3 4,3L6,3C6.549,3 7,3.451 7,4L7,6C7,6.549 6.549,7 6,7L4,7C3.451,7 3,6.549 3,6ZM7,28C7,28.549 6.549,29 6,29L4,29C3.451,29 3,28.549 3,28L3,26C3,25.451 3.451,25 4,25L6,25C6.549,25 7,25.451 7,26L7,28ZM29,26L29,28C29,28.549 28.549,29 28,29L26,29C25.451,29 25,28.549 25,28L25,26C25,25.451 25.451,25 26,25L28,25C28.549,25 29,25.451 29,26ZM26,23C24.354,23 23,24.354 23,26L9,26C9,24.354 7.646,23 6,23L6,9C7.646,9 9,7.646 9,6L23,6C23,7.646 24.354,9 26,9L26,23Z" style="fill-rule:nonzero;"/>
    </g>
</svg>
