<?xml version="1.0" encoding="UTF-8" standalone="no"?>
<!DOCTYPE svg PUBLIC "-//W3C//DTD SVG 1.1//EN" "http://www.w3.org/Graphics/SVG/1.1/DTD/svg11.dtd">
<svg width="100%" height="100%" viewBox="0 0 1080 1080" version="1.1" xmlns="http://www.w3.org/2000/svg" xmlns:xlink="http://www.w3.org/1999/xlink" xml:space="preserve" xmlns:serif="http://www.serif.com/" style="fill-rule:evenodd;clip-rule:evenodd;stroke-linejoin:round;stroke-miterlimit:2;">
    <g transform="matrix(1.07121,0,0,1.07121,-38.453,-38.4549)">
        <path d="M35.895,847.765C35.895,841.35 41.096,836.15 47.512,836.15C151.964,836.15 928.03,836.15 1032.49,836.15C1035.57,836.15 1038.52,837.373 1040.7,839.552C1042.88,841.731 1044.1,844.685 1044.1,847.766C1044.1,861.225 1044.1,883.269 1044.1,896.728C1044.1,899.809 1042.88,902.763 1040.7,904.942C1038.52,907.12 1035.57,908.344 1032.49,908.344L47.508,908.344C44.427,908.344 41.472,907.12 39.294,904.942C37.115,902.763 35.891,899.808 35.891,896.727C35.892,883.268 35.894,861.224 35.895,847.765ZM620.53,760.954C620.53,758.538 621.49,756.221 623.199,754.512C624.907,752.804 627.225,751.845 629.641,751.845C664.11,751.854 786.326,751.883 820.787,751.892C825.817,751.893 829.894,755.97 829.894,761C829.894,769.63 829.894,782.521 829.894,791.151C829.894,793.567 828.934,795.884 827.226,797.592C825.518,799.3 823.201,800.26 820.785,800.26C786.32,800.26 664.104,800.26 629.639,800.26C624.608,800.26 620.53,796.182 620.53,791.151C620.53,782.51 620.53,769.596 620.53,760.954ZM110.414,800.21C99.676,800.209 90.972,791.504 90.972,780.766C90.972,687.276 90.975,284.64 90.976,191.147C90.976,180.408 99.681,171.703 110.42,171.703C229.726,171.703 861.526,171.703 980.833,171.703C985.99,171.703 990.935,173.751 994.582,177.398C998.228,181.044 1000.28,185.99 1000.28,191.147C1000.28,284.645 1000.28,687.316 1000.28,780.814C1000.28,785.971 998.228,790.917 994.582,794.563C990.935,798.21 985.99,800.258 980.833,800.258C943.575,800.258 865.785,800.258 865.785,800.258L865.785,733.92C865.785,724.024 857.758,715.997 847.812,715.997L602.544,715.947C597.799,715.947 593.204,717.865 589.872,721.197C586.49,724.58 584.622,729.174 584.622,733.92L584.622,800.259C584.622,800.259 201.846,800.219 110.414,800.21Z" style="fill-rule:nonzero;"/>
    </g>
</svg>
