<svg width="16" height="16" viewBox="0 0 16 16" fill="none" xmlns="http://www.w3.org/2000/svg">
<g clip-path="url(#clip0_21_23)">
<path d="M13.3961 0.175781H2.60406C1.56267 0.175781 0.715363 1.02291 0.715363 2.06447V12.8565C0.715363 13.7118 1.28466 14.4347 2.06428 14.6668V15.0147C2.06428 15.4599 2.42862 15.8242 2.87377 15.8242H4.49258C4.93773 15.8242 5.30206 15.4599 5.30206 15.0147V14.745H10.6981V15.0147C10.6981 15.4599 11.0622 15.8242 11.5074 15.8242H13.1262C13.5714 15.8242 13.9357 15.4599 13.9357 15.0147V14.6668C14.7153 14.4347 15.2846 13.7116 15.2846 12.8565V2.06447C15.2846 1.02291 14.4377 0.175781 13.3961 0.175781ZM14.7452 8.80941H13.1264C12.9779 8.80941 12.8565 8.68785 12.8565 8.53952V6.38112C12.8565 6.23279 12.9779 6.1114 13.1264 6.1114H14.7452V8.80941ZM14.7452 5.5718H13.666V2.6039C13.666 2.15858 13.3016 1.79441 12.8565 1.79441H3.14366C2.69851 1.79441 2.33434 2.15858 2.33434 2.6039V3.41322C2.03752 3.41322 1.79474 3.656 1.79474 3.95282V5.03203C1.79474 5.32885 2.03752 5.57163 2.33434 5.57163V9.34884C2.03752 9.34884 1.79474 9.59162 1.79474 9.88844V10.9676C1.79474 11.2645 2.03752 11.5072 2.33434 11.5072V12.3167C2.33434 12.7619 2.69851 13.1261 3.14366 13.1261H12.8565C13.3016 13.1261 13.666 12.7619 13.666 12.3167V9.34867H14.7452V12.856C14.7452 13.6007 14.1408 14.2051 13.3961 14.2051H2.60406C1.85949 14.2051 1.25514 13.6007 1.25514 12.856V2.06396C1.25514 1.31939 1.85949 0.715038 2.60406 0.715038H13.3961C14.1408 0.715038 14.7452 1.31939 14.7452 2.06396V5.5718ZM6.02522 6.13834C5.79574 6.43775 5.63929 6.79657 5.58801 7.19061H4.50345C4.56009 6.49992 4.83533 5.86845 5.2589 5.36943L6.02522 6.13558V6.13834ZM5.63929 4.98903C6.13849 4.56529 6.76978 4.29022 7.46047 4.23359V5.31814C7.06661 5.36943 6.70779 5.52587 6.40821 5.75518L5.64206 4.98886L5.63929 4.98903ZM5.58801 7.73021C5.63929 8.12407 5.79574 8.48289 6.02504 8.7823L5.2589 9.54862C4.83533 9.04943 4.56009 8.41814 4.50345 7.72744H5.58801V7.73021ZM6.40821 9.16546C6.70779 9.39477 7.06661 9.55121 7.46047 9.6025V10.6871C6.76978 10.6304 6.13849 10.3552 5.63929 9.93161L6.40562 9.16546H6.40821ZM6.58623 8.60428C6.29217 8.31298 6.11138 7.90823 6.11138 7.46032C6.11138 7.01241 6.29217 6.60784 6.58623 6.31636C6.8777 6.0223 7.28245 5.84151 7.73019 5.84151C8.1781 5.84151 8.58284 6.0223 8.87414 6.31636C9.16838 6.60784 9.34899 7.01241 9.34899 7.46032C9.34899 7.90823 9.16838 8.31298 8.87414 8.60428C8.58284 8.89834 8.1781 9.07913 7.73019 9.07913C7.28245 9.07913 6.8777 8.89834 6.58623 8.60428ZM8.00007 5.31814V4.23359C8.69076 4.29022 9.32206 4.56546 9.82125 4.98903L9.05493 5.75518C8.75552 5.52587 8.3967 5.36943 8.00284 5.31814H8.00007ZM8.00007 9.6025C8.39394 9.55121 8.75275 9.39477 9.05234 9.16546L9.81849 9.93161C9.31947 10.3552 8.688 10.6304 7.99731 10.6871V9.6025H8.00007ZM9.43533 8.7823C9.66481 8.48289 9.82125 8.12407 9.87254 7.73003H10.9571C10.9005 8.42073 10.6252 9.05202 10.2016 9.55121L9.43533 8.78506V8.7823ZM9.87254 7.19043C9.82125 6.79657 9.66481 6.43775 9.43533 6.13817L10.2016 5.37202C10.6252 5.87121 10.9005 6.50251 10.9571 7.1932H9.87254V7.19043ZM2.33434 5.03203V3.95282H2.87394V5.03203H2.33434ZM2.87394 9.88844V10.9676H2.33434V9.88844H2.87394Z" fill="black"/>
<path d="M8.53967 7.46028C8.53967 8.53949 6.92087 8.53949 6.92087 7.46028C6.92087 6.38108 8.53967 6.38108 8.53967 7.46028Z" fill="black"/>
</g>
<defs>
<clipPath id="clip0_21_23">
<rect width="16" height="16" fill="white"/>
</clipPath>
</defs>
</svg>
