<svg width="32" height="32" viewBox="0 0 32 32" fill="none" xmlns="http://www.w3.org/2000/svg">
<g clip-path="url(#clip0_21_24)">
<path d="M27.3131 14.0433C30.008 14.6346 32.0005 17.0339 32.0005 19.8757C32.0005 23.1601 29.3056 25.855 26.0212 25.855H7.71423C3.46942 25.855 0.000488281 22.386 0.000488281 18.1412C0.000488281 13.8964 3.46942 10.4275 7.71423 10.4275C8.19445 10.4275 8.6743 10.4651 9.15304 10.5744C10.7768 7.84368 13.6935 6.14502 16.9044 6.14502C20.0046 6.14502 22.7726 7.73258 24.3978 10.1676C24.5089 10.3149 24.4713 10.5367 24.3244 10.684L23.8818 11.1266C23.6972 11.3111 23.3654 11.2735 23.2547 11.0531C21.889 8.94955 19.5635 7.58383 16.9063 7.58383C14.0641 7.58383 11.4807 9.17139 10.1511 11.7175L9.89275 12.2339L9.37377 12.0494C8.8201 11.9021 8.26643 11.8272 7.75041 11.8272C4.2811 11.8272 1.47547 14.6332 1.47547 18.1021C1.47547 21.5714 4.2811 24.377 7.75041 24.377H26.0574C28.7881 24.377 30.9669 21.9405 30.5244 19.0983C30.1553 16.8837 28.1628 15.3337 25.9481 15.3337C25.7635 15.3337 25.6524 15.1119 25.8012 14.9646L26.5018 14.2641C26.6849 14.0433 27.0174 13.9699 27.3131 14.0433ZM29.6747 9.46557C30.0065 9.1341 30.0065 8.58043 29.6747 8.21132C29.3432 7.87949 28.7895 7.87949 28.4204 8.21132L16.202 20.4655L10.8875 15.151C10.556 14.8192 10.0024 14.8192 9.63326 15.151C9.30142 15.4825 9.30142 16.0362 9.63326 16.4053L15.5767 22.3488C15.872 22.6444 16.3522 22.6802 16.7214 22.4599C16.759 22.4222 16.8325 22.3864 16.8686 22.3488L29.6747 9.46557Z" fill="black"/>
</g>
<defs>
<clipPath id="clip0_21_24">
<rect width="32" height="32" fill="white"/>
</clipPath>
</defs>
</svg>
